# xmcd CD database file
#
# Track frame offsets:
#	150
#	22301
#	39697
#	53848
#	71444
#	87057
#	100511
#	121454
#	137908
#	151134
#	169462
#	185141
#
# Disc length: 2643 seconds
#
# Revision: 0
# Processed by: cddbd v1.4PL0 Copyright (c) Steve Scherf et al.
# Submitted via: CDex 1.40Beta9
#
DISCID=a60a510c
DTITLE=Jayne - Jayne
DYEAR=1997
DGENRE=Country
TTITLE0=O mais importante é o verdadeiro amor
TTITLE1=Bem Te Vi
TTITLE2=Peão Apaixonado
TTITLE3=Sem Você
TTITLE4=Cowboy Fora da Lei
TTITLE5=O Tropeiro
TTITLE6=O Menino da Gaita
TTITLE7=Eu Sou Terrível
TTITLE8=Goiás é Mais
TTITLE9=Lembrança
TTITLE10=Peão da Cidade
TTITLE11=Cana Verde
EXTD=YEAR: 1997 ID3G: 2
EXTT0=
EXTT1=
EXTT2=
EXTT3=
EXTT4=
EXTT5=
EXTT6=
EXTT7=
EXTT8=
EXTT9=
EXTT10=
EXTT11=
PLAYORDER=
